<?xml version="1.0" encoding="UTF-8" standalone="no"?>
<svg width="260px" height="308px" viewBox="0 0 260 308" version="1.1" xmlns="http://www.w3.org/2000/svg" xmlns:xlink="http://www.w3.org/1999/xlink">
    <!-- Generator: Sketch 3.7 (28169) - http://www.bohemiancoding.com/sketch -->
    <title>Page 1</title>
    <desc>Created with Sketch.</desc>
    <defs>
        <polygon id="path-1" points="260 154.29885 260 0.598 0 0.598 0 154.29885 0 307.9997 260 307.9997 260 154.29885"></polygon>
    </defs>
    <g id="Page-1" stroke="none" stroke-width="1" fill="none" fill-rule="evenodd">
        <g transform="translate(0.000000, -1.000000)">
            <g id="Group-3" transform="translate(0.000000, 0.402000)">
                <mask id="mask-2" fill="white">
                    <use xlink:href="#path-1"></use>
                </mask>
                <g id="Clip-2"></g>
                <path d="M260,130.5977 C260,58.9147 201.682,0.5977 130,0.5977 C58.318,0.5977 0,58.9147 0,130.5977 C0,197.6357 51.007,252.9797 116.249,259.8707 L130,307.9997 L143.75,259.8707 C208.993,252.9797 260,197.6357 260,130.5977" id="Fill-1" fill-opacity="0.4" fill="#231F1F" mask="url(#mask-2)"></path>
            </g>
            <path d="M250,130.9996 C250,197.2736 196.274,250.9996 130,250.9996 C63.726,250.9996 10,197.2736 10,130.9996 C10,64.7256 63.726,10.9996 130,10.9996 C196.274,10.9996 250,64.7256 250,130.9996" id="Fill-4" fill="#D1FFFF"></path>
            <path d="M130,230.9996 C74.86,230.9996 30,186.1406 30,130.9996 C30,75.8586 74.86,30.9996 130,30.9996 C185.14,30.9996 230,75.8586 230,130.9996 C230,186.1406 185.14,230.9996 130,230.9996" id="Fill-6" fill="#FBB040"></path>
            <path d="M130,230.9996 C74.86,230.9996 30,186.1406 30,130.9996 C30,75.8586 74.86,30.9996 130,30.9996 C185.14,30.9996 230,75.8586 230,130.9996 C230,186.1406 185.14,230.9996 130,230.9996" id="Fill-8" fill="#FBB040"></path>
            <path d="M168.2661,38.6162 C190.6741,56.9702 205.0001,84.8422 205.0001,115.9992 C205.0001,171.1402 160.1401,215.9992 105.0001,215.9992 C91.4521,215.9992 78.5271,213.2862 66.7341,208.3832 C83.9821,222.5102 106.0171,230.9992 130.0001,230.9992 C185.1401,230.9992 230.0001,186.1402 230.0001,130.9992 C230.0001,89.4072 204.4731,53.6692 168.2661,38.6162" id="Fill-10" fill-opacity="0.1" fill="#000000"></path>
            <path d="M130,115.9992 C94.159,115.9992 65,145.1582 65,180.9992 C65,192.9252 68.243,204.1022 73.872,213.7202 C81.313,218.7852 89.469,222.8742 98.156,225.8002 C84.156,215.8202 75,199.4642 75,180.9992 C75,150.6722 99.673,125.9992 130,125.9992 C160.327,125.9992 185,150.6722 185,180.9992 C185,199.4642 175.844,215.8202 161.844,225.8002 C170.531,222.8742 178.687,218.7852 186.128,213.7202 C191.757,204.1022 195,192.9252 195,180.9992 C195,145.1582 165.841,115.9992 130,115.9992" id="Fill-12" fill-opacity="0.3" fill="#000000"></path>
            <path d="M130,215.9996 C110.701,215.9996 95,200.2986 95,180.9996 C95,161.7006 110.701,145.9996 130,145.9996 C149.299,145.9996 165,161.7006 165,180.9996 C165,200.2986 149.299,215.9996 130,215.9996" id="Fill-14" fill-opacity="0.2" fill="#000000"></path>
            <path d="M154.0508,187.8184 L154.0508,187.8184 C154.6648,185.6504 154.9998,183.3644 154.9998,180.9994 C154.9998,167.1924 143.8068,155.9994 129.9998,155.9994 C116.1928,155.9994 104.9998,167.1924 104.9998,180.9994 C104.9998,183.5964 105.3958,186.1004 106.1308,188.4544 L129.9998,271.9994 L153.8698,188.4534 C153.9338,188.2484 153.9888,188.0384 154.0478,187.8304 L154.0508,187.8184 Z" id="Fill-16" fill="#FFFFFF"></path>
            <path d="M153.8694,188.4536 C153.9334,188.2476 153.9884,188.0386 154.0474,187.8306 L154.0504,187.8186 C154.6644,185.6496 155.0004,183.3646 155.0004,180.9996 C155.0004,167.1926 143.8074,155.9996 130.0004,155.9996 L130.0004,271.9996 L153.8694,188.4536 Z" id="Fill-18" fill-opacity="0.1" fill="#000000"></path>
        </g>
    </g>
</svg>