<?xml version="1.0" encoding="UTF-8" standalone="no"?>
<svg width="147px" height="194px" viewBox="0 0 147 194" version="1.1" xmlns="http://www.w3.org/2000/svg" xmlns:xlink="http://www.w3.org/1999/xlink">
    <!-- Generator: Sketch 3.7 (28169) - http://www.bohemiancoding.com/sketch -->
    <title>Page 1</title>
    <desc>Created with Sketch.</desc>
    <defs></defs>
    <g id="Page-1" stroke="none" stroke-width="1" fill="none" fill-rule="evenodd">
        <g transform="translate(0.000000, -1.000000)">
            <path d="M143.6771,29.1325 C139.5531,16.5105 131.0611,7.6355 119.1171,3.4675 C114.3591,1.8075 109.9901,0.9995 105.7611,0.9995 C81.7531,0.9995 71.2591,24.7215 53.8741,64.0215 C51.0681,70.3625 48.1681,76.9195 44.9371,84.0285 C35.7311,104.2835 24.4641,120.6305 14.0321,133.1285 C29.9171,148.7755 41.8101,168.4625 48.0171,190.5105 C71.2971,176.8985 94.4801,157.2965 117.9081,123.3065 C141.9251,88.4615 151.5581,53.2565 143.6771,29.1325" id="Fill-1" fill-opacity="0.4" fill="#231F1F"></path>
            <path d="M115.822,12.9091 C87.649,3.0771 79.714,31.6781 54.041,88.1661 C37.204,125.2121 13.987,149.6791 0,162.1331 C7.833,171.6221 13.947,182.5771 17.875,194.5161 C49.701,180.4611 79.311,161.6851 109.675,117.6311 C144.449,67.1781 143.995,22.7411 115.822,12.9091" id="Fill-4" fill="#FFFFFF"></path>
            <path d="M115.8219,12.9091 C110.1709,10.9371 105.3439,10.5371 101.0149,11.5721 C102.5529,11.8871 104.1499,12.3251 105.8219,12.9091 C133.9949,22.7411 134.4489,67.1781 99.6749,117.6311 C72.0639,157.6901 45.0749,176.8411 16.4779,190.5531 C16.9709,191.8611 17.4369,193.1821 17.8749,194.5161 C49.7009,180.4601 79.3109,161.6841 109.6749,117.6311 C144.4489,67.1781 143.9949,22.7411 115.8219,12.9091" id="Fill-7" fill-opacity="0.1" fill="#000000"></path>
        </g>
    </g>
</svg>