<?xml version="1.0" encoding="UTF-8" standalone="no"?>
<svg width="147px" height="194px" viewBox="0 0 147 194" version="1.1" xmlns="http://www.w3.org/2000/svg" xmlns:xlink="http://www.w3.org/1999/xlink">
    <!-- Generator: Sketch 3.7 (28169) - http://www.bohemiancoding.com/sketch -->
    <title>Page 1</title>
    <desc>Created with Sketch.</desc>
    <defs></defs>
    <g id="Page-1" stroke="none" stroke-width="1" fill="none" fill-rule="evenodd">
        <g>
            <path d="M132.312,132.1578 C121.911,119.6848 110.67,103.3448 101.437,83.0278 C98.206,75.9198 95.306,69.3628 92.5,63.0208 C75.115,23.7208 64.62,-0.0002 40.613,-0.0002 C36.383,-0.0002 32.015,0.8068 27.257,2.4678 C15.313,6.6358 6.82,15.5108 2.697,28.1328 C-5.185,52.2568 4.449,87.4618 28.465,122.3058 C51.894,156.2968 75.076,175.8988 98.356,189.5098 C104.56,167.4758 116.442,147.7998 132.312,132.1578" id="Fill-1" fill-opacity="0.4" fill="#231F1F"></path>
            <path d="M146.3738,161.1333 C132.3868,148.6793 109.1698,124.2123 92.3328,87.1653 C66.6598,30.6783 58.7248,2.0773 30.5518,11.9093 C2.3788,21.7403 1.9248,66.1783 36.6988,116.6313 C67.0628,160.6843 96.6728,179.4603 128.4988,193.5163 C132.4268,181.5773 138.5408,170.6223 146.3738,161.1333" id="Fill-4" fill="#FFFFFF"></path>
            <path d="M129.8958,189.5534 C101.2998,175.8404 74.3098,156.6894 46.6988,116.6314 C11.9248,66.1784 12.3788,21.7404 40.5518,11.9094 C42.2248,11.3254 43.8208,10.8874 45.3588,10.5724 C41.0298,9.5374 36.2028,9.9374 30.5518,11.9094 C2.3788,21.7404 1.9248,66.1784 36.6988,116.6314 C67.0628,160.6844 96.6728,179.4604 128.4988,193.5164 C128.9378,192.1824 129.4028,190.8614 129.8958,189.5534" id="Fill-7" fill-opacity="0.1" fill="#000000"></path>
        </g>
    </g>
</svg>